<svg xmlns="http://www.w3.org/2000/svg" version="1.1" viewBox="-5.0 -10.0 110.0 135.0">
 <path d="m5.4023 55.125v9.5938c0 0.47656 0.21875 0.92578 0.58984 1.2227 0.375 0.29688 0.86328 0.40625 1.3242 0.29688l34.312-7.9688c0.55469 6.9922 1.1289 13.254 1.7031 18.652l-12.652 7.3086c-0.48438 0.27734-0.78125 0.79297-0.78125 1.3516v9.7305c0 0.46875 0.21094 0.91406 0.57812 1.2109 0.36719 0.29687 0.85156 0.41406 1.3047 0.31641l18.207-3.8281 18.227 3.8281c0.10547 0.023437 0.21484 0.03125 0.32031 0.03125 0.35547 0 0.70312-0.12109 0.98438-0.35156 0.36719-0.29688 0.57812-0.74219 0.57812-1.2109v-9.7305c0-0.55859-0.29688-1.0742-0.78125-1.3516l-12.652-7.3086c0.57813-5.4023 1.1484-11.664 1.7031-18.652l34.309 7.9688c0.46094 0.10938 0.95312 0 1.3242-0.29688 0.375-0.29688 0.58984-0.74609 0.58984-1.2227v-9.5938c0-0.51953-0.25781-1.0078-0.69141-1.2969l-33.691-22.652c0.5-8.6797 0.80859-15.539 0.80859-17.016 0-6.0859-4.9492-11.035-11.035-11.035-6.0859 0-11.012 4.9492-11.012 11.035 0 1.4688 0.30859 8.3281 0.80859 17.016l-33.684 22.656c-0.42969 0.28906-0.69141 0.77734-0.69141 1.2969zm3.125 0.83203 33.742-22.688c0.45703-0.30859 0.71875-0.83594 0.6875-1.3867-0.58594-9.9961-0.85547-16.484-0.85547-17.723 0-4.3633 3.5391-7.9102 7.8867-7.9102 4.3477 0 7.9102 3.5469 7.9102 7.9102 0 1.293-0.29688 8.1719-0.85547 17.727-0.03125 0.55078 0.23047 1.0781 0.6875 1.3867l33.742 22.684v6.793l-34.164-7.9336c-0.44141-0.10547-0.91016-0.007812-1.2773 0.26172s-0.59766 0.68359-0.63281 1.1406c-0.63281 8.1367-1.2891 15.332-1.9453 21.379-0.066406 0.61719 0.23438 1.2109 0.77344 1.5234l12.75 7.3672v6.9023l-16.668-3.5c-0.21094-0.042969-0.42969-0.042969-0.64062 0l-16.641 3.5v-6.9023l12.75-7.3672c0.53516-0.30859 0.83984-0.90625 0.77344-1.5234-0.65625-6.043-1.3125-13.234-1.9453-21.379-0.035157-0.45312-0.26562-0.87109-0.63281-1.1406-0.36719-0.26953-0.83594-0.36719-1.2773-0.26172l-34.164 7.9375v-6.793z"/>
</svg>